<svg width="53" height="51" viewBox="0 0 53 51" fill="none" xmlns="http://www.w3.org/2000/svg">
<path fill-rule="evenodd" clip-rule="evenodd" d="M11 13.7171L3.80957 20.9076L0.981143 18.0791L8.17157 10.8887L1 3.71715L3.82843 0.888718L11 8.06029L18.1716 0.888672L21 3.7171L13.8284 10.8887L21.0189 18.0792L18.1905 20.9076L11 13.7171ZM46 4.90758H35V15.9076H46V4.90758ZM35 0.907575H31V4.90758V15.9076V19.9076H35H46H50V15.9076V4.90758V0.907575H46H35ZM10.5 46.9076C14.0899 46.9076 17 43.9974 17 40.4076C17 36.8177 14.0899 33.9076 10.5 33.9076C6.91015 33.9076 4 36.8177 4 40.4076C4 43.9974 6.91015 46.9076 10.5 46.9076ZM10.5 50.9076C16.299 50.9076 21 46.2066 21 40.4076C21 34.6086 16.299 29.9076 10.5 29.9076C4.70101 29.9076 0 34.6086 0 40.4076C0 46.2066 4.70101 50.9076 10.5 50.9076ZM38.1906 32.9076L40.5 28.9076L42.8094 32.9076L49.8819 45.1576L52.1913 49.1576H47.5725H33.4275H28.8087L31.1181 45.1576L38.1906 32.9076ZM35.7369 45.1576L40.5 36.9076L45.2631 45.1576H35.7369Z" fill="#00D4A6"/>
</svg>
