<svg width="60" height="54" viewBox="0 0 60 54" fill="none" xmlns="http://www.w3.org/2000/svg">
<path fill-rule="evenodd" clip-rule="evenodd" d="M38 5H22V0H38V5ZM49 15.4032H55V21H60V15.4032V10.4032H55H49V15.4032ZM55 49V43H60V49V54H55H49V49H55ZM5 10.4032H11V15.4032H5V21H0V15.4032V10.4032H5ZM5 43H0V49V54H5H11V49H5V43ZM39.6 30.1413C39.6 35.5537 35.2124 39.9413 29.8 39.9413C24.3876 39.9413 20 35.5537 20 30.1413C20 24.7289 24.3876 20.3413 29.8 20.3413C35.2124 20.3413 39.6 24.7289 39.6 30.1413ZM44.6 30.1413C44.6 38.3151 37.9738 44.9413 29.8 44.9413C21.6262 44.9413 15 38.3151 15 30.1413C15 21.9675 21.6262 15.3413 29.8 15.3413C37.9738 15.3413 44.6 21.9675 44.6 30.1413ZM13 52H47V51H13V52ZM2 41L2 23H3L3 41H2ZM57 23V41H58V23H57ZM18.7093 4.29067L14 9L13.2929 8.29289L18.0022 3.58356L18.7093 4.29067ZM45.7095 9L41.0001 4.29067L41.7072 3.58356L46.4166 8.29289L45.7095 9Z" fill="#00D4A6"/>
</svg>
