<svg width="37" height="42" viewBox="0 0 37 42" fill="none" xmlns="http://www.w3.org/2000/svg">
<path fill-rule="evenodd" clip-rule="evenodd" d="M9.53327 22.3409V2.59205H35.3011V23.1943L31.2681 27.2273H15.2946C15.2842 26.9163 15.2583 26.6086 15.2205 26.3076C15.2392 26.2585 15.2548 26.2147 15.2696 26.1733C15.3315 25.9997 15.3781 25.8692 15.5725 25.5692C15.8442 25.1499 16.3829 24.449 17.5284 23.1687C18.1562 22.4671 18.3719 21.6601 18.2082 20.8805C18.053 20.1416 17.5809 19.5361 17.0426 19.114C16.5014 18.6895 15.8225 18.3929 15.1361 18.3198C14.4496 18.2466 13.6779 18.3954 13.0948 18.9719L9.53327 22.3409ZM7.83429 23.9481V19.2481L4.70169 21.6475C4.58504 21.7587 4.38806 21.9821 4.212 22.2729C4.0231 22.585 3.89158 22.9197 3.86743 23.2337C3.83359 23.6736 3.8245 25.8809 3.82957 28.5559C3.83421 31.0071 3.85019 33.7939 3.86496 35.8165H15.3853V34.4951V34.0579L15.741 33.8038C16.2043 33.4729 16.9179 32.7935 17.4559 31.8879C17.9669 31.0278 18.2905 30.0156 18.1546 28.9262H15.1777C15.0864 29.422 14.9395 29.9099 14.7226 30.3757C14.0989 31.7152 12.9365 32.7836 11.0952 33.3276C10.6453 33.4606 10.1728 33.2036 10.0399 32.7537C9.90692 32.3037 10.1639 31.8312 10.6138 31.6983C12.0184 31.2833 12.7776 30.5279 13.1824 29.6585C13.6039 28.7534 13.6806 27.636 13.5292 26.4757C13.4919 26.1901 13.5451 25.9287 13.627 25.7179C13.6391 25.6867 13.6514 25.652 13.6651 25.6131C13.7341 25.4179 13.8397 25.119 14.1468 24.6451C14.492 24.1125 15.1019 23.3327 16.2623 22.0358C16.5635 21.6992 16.5881 21.4325 16.5455 21.2298C16.4944 20.9865 16.3135 20.7013 15.9942 20.4509C15.6779 20.2028 15.2946 20.0452 14.9562 20.0092C14.6216 19.9736 14.4106 20.0588 14.2868 20.1825L14.2785 20.1909L14.2699 20.199L7.28524 26.8061C6.94441 27.1285 6.40675 27.1136 6.08434 26.7728C5.76193 26.4319 5.77687 25.8943 6.1177 25.5719L7.83429 23.9481ZM19.8629 28.9262H31.3072C31.7328 28.9262 32.1409 28.7572 32.4418 28.4563L36.5301 24.368C36.831 24.0671 37.0001 23.6589 37.0001 23.2334V2.49766C37.0001 1.61147 36.2817 0.893066 35.3955 0.893066H9.43888C8.55269 0.893066 7.83429 1.61147 7.83429 2.49766V17.108L3.63654 20.3233L3.60813 20.345L3.58166 20.3691C3.34794 20.5816 3.03139 20.9424 2.75859 21.3931C2.48657 21.8424 2.2248 22.4359 2.17345 23.1034C2.13293 23.6302 2.12563 25.9379 2.13059 28.5591C2.13509 30.9339 2.1502 33.6221 2.16457 35.6278H1.03827C0.464849 35.6278 0 36.0926 0 36.666V39.8752C0 40.3444 0.38033 40.7247 0.84949 40.7247C1.31865 40.7247 1.69898 40.3444 1.69898 39.8752V37.5155H17.5561V40.3472C17.5561 40.8163 17.9365 41.1966 18.4056 41.1966C18.8748 41.1966 19.2551 40.8163 19.2551 40.3472V36.8548C19.2551 36.2814 18.7903 35.8165 18.2168 35.8165H17.0843V34.9108C17.6691 34.4242 18.3652 33.6837 18.9166 32.7557C19.5316 31.7204 19.9929 30.4043 19.8629 28.9262ZM14.4412 7.21705C13.972 7.21705 13.5917 7.59738 13.5917 8.06654C13.5917 8.5357 13.972 8.91603 14.4412 8.91603H29.9208C30.3899 8.91603 30.7703 8.5357 30.7703 8.06654C30.7703 7.59738 30.3899 7.21705 29.9208 7.21705H14.4412ZM13.5917 11.7477C13.5917 11.2785 13.972 10.8982 14.4412 10.8982H24.2575C24.7267 10.8982 25.107 11.2785 25.107 11.7477C25.107 12.2168 24.7267 12.5972 24.2575 12.5972H14.4412C13.972 12.5972 13.5917 12.2168 13.5917 11.7477ZM33.6965 22.9798H31.148V25.6227C31.148 26.0918 30.7677 26.4722 30.2985 26.4722C29.8293 26.4722 29.449 26.0918 29.449 25.6227V22.3191C29.449 21.7457 29.9139 21.2808 30.4873 21.2808H33.6965C34.1656 21.2808 34.546 21.6612 34.546 22.1303C34.546 22.5995 34.1656 22.9798 33.6965 22.9798Z" fill="white"/>
</svg>
