<svg width="37" height="42" viewBox="0 0 37 42" fill="none" xmlns="http://www.w3.org/2000/svg">
<path fill-rule="evenodd" clip-rule="evenodd" d="M9.53327 22.3407V2.59186H35.3011V23.1941L31.2681 27.2271H15.2946C15.2842 26.9162 15.2583 26.6085 15.2205 26.3075C15.2392 26.2583 15.2548 26.2145 15.2696 26.1731C15.3315 25.9996 15.3781 25.869 15.5725 25.569C15.8442 25.1497 16.3829 24.4488 17.5284 23.1685C18.1562 22.4669 18.3719 21.6599 18.2082 20.8804C18.053 20.1414 17.5809 19.5359 17.0426 19.1138C16.5014 18.6893 15.8225 18.3927 15.1361 18.3196C14.4496 18.2465 13.6779 18.3952 13.0948 18.9717L9.53327 22.3407ZM7.83429 23.9479V19.2479L4.70169 21.6473C4.58504 21.7585 4.38806 21.9819 4.212 22.2727C4.0231 22.5848 3.89158 22.9195 3.86743 23.2335C3.83359 23.6734 3.8245 25.8807 3.82957 28.5557C3.83421 31.0069 3.85019 33.7937 3.86496 35.8164H15.3853V34.4949V34.0578L15.741 33.8037C16.2043 33.4727 16.9179 32.7933 17.4559 31.8878C17.9669 31.0276 18.2905 30.0155 18.1546 28.926H15.1777C15.0864 29.4218 14.9395 29.9097 14.7226 30.3755C14.0989 31.715 12.9365 32.7835 11.0952 33.3275C10.6453 33.4604 10.1728 33.2034 10.0399 32.7535C9.90692 32.3035 10.1639 31.831 10.6138 31.6981C12.0184 31.2831 12.7776 30.5278 13.1824 29.6583C13.6039 28.7532 13.6806 27.6358 13.5292 26.4755C13.4919 26.19 13.5451 25.9285 13.627 25.7177C13.6391 25.6865 13.6514 25.6518 13.6651 25.613C13.7341 25.4177 13.8397 25.1188 14.1468 24.645C14.492 24.1123 15.1019 23.3325 16.2623 22.0356C16.5635 21.699 16.5881 21.4323 16.5455 21.2296C16.4944 20.9863 16.3135 20.7011 15.9942 20.4507C15.6779 20.2026 15.2946 20.045 14.9562 20.009C14.6216 19.9734 14.4106 20.0586 14.2868 20.1823L14.2785 20.1907L14.2699 20.1988L7.28524 26.8059C6.94441 27.1283 6.40675 27.1134 6.08434 26.7726C5.76193 26.4317 5.77687 25.8941 6.1177 25.5717L7.83429 23.9479ZM19.8629 28.926H31.3072C31.7328 28.926 32.1409 28.757 32.4418 28.4561L36.5301 24.3678C36.831 24.0669 37.0001 23.6587 37.0001 23.2332V2.49748C37.0001 1.61128 36.2817 0.892883 35.3955 0.892883H9.43888C8.55269 0.892883 7.83429 1.61128 7.83429 2.49748V17.1078L3.63654 20.3231L3.60813 20.3448L3.58166 20.3689C3.34794 20.5814 3.03139 20.9423 2.75859 21.3929C2.48657 21.8422 2.2248 22.4357 2.17345 23.1032C2.13293 23.63 2.12563 25.9377 2.13059 28.5589C2.13509 30.9337 2.1502 33.6219 2.16457 35.6276H1.03827C0.464849 35.6276 0 36.0924 0 36.6658V39.875C0 40.3442 0.38033 40.7245 0.84949 40.7245C1.31865 40.7245 1.69898 40.3442 1.69898 39.875V37.5153H17.5561V40.347C17.5561 40.8161 17.9365 41.1965 18.4056 41.1965C18.8748 41.1965 19.2551 40.8161 19.2551 40.347V36.8546C19.2551 36.2812 18.7903 35.8164 18.2168 35.8164H17.0843V34.9107C17.6691 34.424 18.3652 33.6835 18.9166 32.7555C19.5316 31.7202 19.9929 30.4042 19.8629 28.926ZM14.4412 7.21686C13.972 7.21686 13.5917 7.59719 13.5917 8.06635C13.5917 8.53551 13.972 8.91584 14.4412 8.91584H29.9208C30.3899 8.91584 30.7703 8.53551 30.7703 8.06635C30.7703 7.59719 30.3899 7.21686 29.9208 7.21686H14.4412ZM13.5917 11.7475C13.5917 11.2783 13.972 10.898 14.4412 10.898H24.2575C24.7267 10.898 25.107 11.2783 25.107 11.7475C25.107 12.2166 24.7267 12.597 24.2575 12.597H14.4412C13.972 12.597 13.5917 12.2166 13.5917 11.7475ZM33.6965 22.9796H31.148V25.6225C31.148 26.0916 30.7677 26.472 30.2985 26.472C29.8293 26.472 29.449 26.0916 29.449 25.6225V22.3189C29.449 21.7455 29.9139 21.2806 30.4873 21.2806H33.6965C34.1656 21.2806 34.546 21.661 34.546 22.1301C34.546 22.5993 34.1656 22.9796 33.6965 22.9796Z" fill="white"/>
</svg>
