<svg width="39" height="26" viewBox="0 0 39 26" fill="none" xmlns="http://www.w3.org/2000/svg">
<path fill-rule="evenodd" clip-rule="evenodd" d="M9.71412 5.71429C9.71412 8.03674 7.98433 9.71428 6.09507 9.71428C4.2058 9.71428 2.47602 8.03674 2.47602 5.71429C2.47602 3.39183 4.2058 1.71429 6.09507 1.71429C7.98433 1.71429 9.71412 3.39183 9.71412 5.71429ZM11.4284 5.71429C11.4284 8.8702 9.04059 11.4286 6.09507 11.4286C3.14955 11.4286 0.761736 8.8702 0.761736 5.71429C0.761736 2.55837 3.14955 0 6.09507 0C9.04059 0 11.4284 2.55837 11.4284 5.71429ZM10.3661 22.5885C11.1239 22.6164 12.0722 22.6455 13.0615 22.6667H17.5719C18.033 22.6481 18.3953 22.6207 18.621 22.5831C18.6808 22.5731 18.8502 22.519 18.9957 22.0143C19.1329 21.5383 19.1652 20.9016 19.1324 20.2977C19.125 20.2926 19.1101 20.2857 19.0877 20.2857H13.573C13.0534 20.2857 12.559 20.0624 12.2154 19.6727L7.79656 14.6589C7.77896 14.639 7.7597 14.6317 7.74509 14.6305C7.03282 14.5714 6.04533 14.5114 5.10461 14.5002C4.13342 14.4887 3.3119 14.5317 2.87455 14.6411C2.6451 14.6984 2.36876 14.9418 2.11615 15.479C1.8864 15.9676 1.75913 16.5316 1.71429 16.9055V25.1429C1.71429 25.6163 1.33053 26 0.857143 26C0.383756 26 0 25.6163 0 25.1429V16.8572V16.8114L0.00487787 16.7658C0.0601788 16.2497 0.227339 15.4673 0.564803 14.7496C0.888382 14.0614 1.46918 13.2254 2.45878 12.978C3.13658 12.8085 4.16342 12.7747 5.12495 12.7861C6.11694 12.7979 7.14654 12.8606 7.88686 12.9221C8.35469 12.9609 8.78014 13.1822 9.08263 13.5254L13.5015 18.5392C13.5196 18.5597 13.5456 18.5714 13.573 18.5714H19.0877C19.9607 18.5714 20.7896 19.2198 20.8436 20.1936C20.8819 20.8844 20.8576 21.7446 20.6429 22.4892C20.6261 22.5474 20.6076 22.6067 20.5871 22.6667H36.9523C37.4257 22.6667 37.8094 23.0504 37.8094 23.5238C37.8094 23.9972 37.4257 24.381 36.9523 24.381H17.5996C16.8504 24.4106 15.9333 24.416 15.0013 24.4096C14.3582 24.4051 13.6919 24.3947 13.0433 24.381H9.90467C9.51317 24.381 9.18297 24.1185 9.08045 23.7599C9.04091 23.7195 9.00312 23.6771 8.96724 23.6327L6.00046 19.9679C5.7026 19.6 5.75942 19.0602 6.12735 18.7624C6.49529 18.4645 7.03502 18.5213 7.33288 18.8893L10.2997 22.5541C10.3178 22.5766 10.3421 22.5876 10.3661 22.5885ZM21.4107 9.58329C21.4253 9.54734 21.4602 9.52381 21.499 9.52381H36.8812C36.9486 9.52381 36.9946 9.59175 36.9697 9.65429L33.0618 19.4638C33.0474 19.5 33.0124 19.5238 32.9734 19.5238H23.7144C23.241 19.5238 22.8572 19.9076 22.8572 20.381C22.8572 20.8543 23.241 21.2381 23.7144 21.2381H32.9734C33.7142 21.2381 34.3802 20.7865 34.6544 20.0983L38.5623 10.2887C39.0356 9.10046 38.1603 7.80952 36.8812 7.80952H21.499C20.762 7.80952 20.0986 8.25656 19.8219 8.93969L17.0152 15.8687C16.8375 16.3074 17.0491 16.8072 17.4878 16.9849C17.9266 17.1626 18.4263 16.951 18.6041 16.5123L21.4107 9.58329Z" fill="white"/>
</svg>
