<svg width="32" height="37" viewBox="0 0 32 37" fill="none" xmlns="http://www.w3.org/2000/svg">
<path fill-rule="evenodd" clip-rule="evenodd" d="M5.01972 1.03C5.35908 0.690645 5.81934 0.5 6.29925 0.5H25.0476C26.047 0.5 26.8571 1.31015 26.8571 2.30952V14.3095C26.8571 14.7829 26.4734 15.1667 26 15.1667C25.5266 15.1667 25.1429 14.7829 25.1429 14.3095V2.30952C25.1429 2.25693 25.1002 2.21429 25.0476 2.21429H6.29925C6.27399 2.21429 6.24977 2.22432 6.23191 2.24218L1.74218 6.73191C1.72432 6.74977 1.71429 6.77399 1.71429 6.79925V34.6905C1.71429 34.7431 1.75693 34.7857 1.80952 34.7857H25.0476C25.1002 34.7857 25.1429 34.7431 25.1429 34.6905V34.4048C25.1429 33.9314 25.5266 33.5476 26 33.5476C26.4734 33.5476 26.8571 33.9314 26.8571 34.4048V34.6905C26.8571 35.6899 26.047 36.5 25.0476 36.5H1.80952C0.810151 36.5 0 35.6899 0 34.6905V6.79925C0 6.31934 0.190645 5.85908 0.529997 5.51973L5.01972 1.03ZM22.6346 21.3013C22.981 21.6239 23.0003 22.1663 22.6777 22.5127L18.8996 26.5698C18.2013 27.3197 17.0203 27.3407 16.2958 26.6161L14.3629 24.6832C14.0282 24.3484 14.0282 23.8057 14.363 23.471C14.6977 23.1363 15.2404 23.1363 15.5751 23.471L17.508 25.404C17.5461 25.4421 17.6083 25.441 17.6451 25.4016L21.4232 21.3444C21.7458 20.998 22.2881 20.9787 22.6346 21.3013ZM8.47608 3.73809C8.47608 3.2647 8.09232 2.88095 7.61894 2.88095C7.14555 2.88095 6.76179 3.2647 6.76179 3.73809V7.07142C6.76179 7.12402 6.71915 7.16666 6.66655 7.16666H3.14274C2.66936 7.16666 2.2856 7.55042 2.2856 8.0238C2.2856 8.49719 2.66936 8.88095 3.14274 8.88095H6.66655C7.66593 8.88095 8.47608 8.07079 8.47608 7.07142V3.73809ZM18.1905 31.4524C22.6614 31.4524 26.2858 27.828 26.2858 23.3572C26.2858 18.8863 22.6614 15.2619 18.1905 15.2619C13.7197 15.2619 10.0953 18.8863 10.0953 23.3572C10.0953 27.828 13.7197 31.4524 18.1905 31.4524ZM26.1248 29.1268C27.3042 27.5076 28.0001 25.5136 28.0001 23.3572C28.0001 17.9395 23.6082 13.5476 18.1905 13.5476C12.7729 13.5476 8.38103 17.9395 8.38103 23.3572C8.38103 28.7748 12.7729 33.1667 18.1905 33.1667C20.8333 33.1667 23.232 32.1216 24.9959 30.4222L30.5369 35.9632C30.8716 36.298 31.4143 36.298 31.7491 35.9632C32.0838 35.6285 32.0838 35.0858 31.7491 34.7511L26.1248 29.1268Z" fill="white"/>
</svg>
