<svg width="48" height="49" viewBox="0 0 48 49" fill="none" xmlns="http://www.w3.org/2000/svg">
<path fill-rule="evenodd" clip-rule="evenodd" d="M6 0.907227H0V6.90723H6V0.907227ZM6 14.9072H0V20.9072H6V14.9072ZM42 0.907227H48V6.90723H42V0.907227ZM48 14.9072H42V20.9072H48V14.9072ZM14 0.907227H20V6.90723H14V0.907227ZM20 14.9072H14V20.9072H20V14.9072ZM28 0.907227H34V6.90723H28V0.907227ZM34 14.9072H28V20.9072H34V14.9072ZM0 28.9072H6V34.9072H0V28.9072ZM6 42.9072H0V48.9072H6V42.9072ZM42 28.9072H48V34.9072H42V28.9072ZM48 42.9072H42V48.9072H48V42.9072ZM14 28.9072H20V34.9072H14V28.9072ZM20 42.9072H14V48.9072H20V42.9072ZM28 28.9072H34V34.9072H28V28.9072ZM34 42.9072H28V48.9072H34V42.9072Z" fill="#00D4A6"/>
</svg>
