<svg width="53" height="50" viewBox="0 0 53 50" fill="none" xmlns="http://www.w3.org/2000/svg">
<path fill-rule="evenodd" clip-rule="evenodd" d="M0 0.907227H7V7.90723H0V0.907227ZM23 0.907227H30V7.90723H23V0.907227ZM26 9.90723H27V19.9072H26V9.90723ZM26 30.9072H27V40.9072H26V30.9072ZM30 42.9072H23V49.9072H30V42.9072ZM30 21.9072H23V28.9072H30V21.9072ZM7 21.9072H0V28.9072H7V21.9072ZM0 42.9072H7V49.9072H0V42.9072ZM4 9.90723H3V19.9072H4V9.90723ZM3 30.9072H4V40.9072H3V30.9072ZM53 42.9072H46V49.9072H53V42.9072ZM46 0.907227H53V7.90723H46V0.907227ZM53 21.9072H46V28.9072H53V21.9072ZM49 9.90723H50V19.9072H49V9.90723ZM50 30.9072H49V40.9072H50V30.9072Z" fill="#00D4A6"/>
</svg>
