<svg width="61" height="58" viewBox="0 0 61 58" fill="none" xmlns="http://www.w3.org/2000/svg">
<path fill-rule="evenodd" clip-rule="evenodd" d="M38.0423 5.52786L30.4338 0L22.8254 5.52786L25.7643 9.57295L30.4338 6.18034L35.1033 9.57295L38.0423 5.52786ZM7.60845 16.5836L0 22.1115L2.90617 31.0557L7.66145 29.5106L5.87785 24.0213L10.5474 20.6287L7.60845 16.5836ZM39.8384 57.8885V52.8885H45.6102L47.3938 47.3992L52.1491 48.9443L49.2429 57.8885H39.8384ZM57.9614 31.0557L53.2062 29.5106L54.9898 24.0213L50.3202 20.6287L53.2592 16.5836L60.8676 22.1115L57.9614 31.0557ZM21.0292 57.8885V52.8885H15.2574L13.4738 47.3992L8.71851 48.9443L11.6247 57.8885H21.0292Z" fill="#00D4A6"/>
</svg>
